<?xml version="1.0" encoding="utf-8"?>
<!-- Generator: Adobe Illustrator 16.0.0, SVG Export Plug-In . SVG Version: 6.00 Build 0)  -->
<!DOCTYPE svg PUBLIC "-//W3C//DTD SVG 1.1//EN" "http://www.w3.org/Graphics/SVG/1.1/DTD/svg11.dtd">
<svg version="1.1" id="Layer_1" xmlns="http://www.w3.org/2000/svg" xmlns:xlink="http://www.w3.org/1999/xlink" x="0px" y="0px"
	 width="107px" height="76.5px" viewBox="0 0 107 76.5" style="enable-background:new 0 0 107 76.5;" xml:space="preserve">
<style type="text/css">
<![CDATA[
	.st0{fill:none;stroke:#000000;stroke-width:0.5083;stroke-linecap:round;stroke-linejoin:round;}
	.st1{fill:#FFDD00;}
	.st2{fill:#D50911;}
]]>
</style>
<g>
	<path d="M54.878,3.633c22.445,0.014,40.747,10.498,40.739,23.329C95.611,39.794,77.29,50.249,54.84,50.229
		c-22.446-0.017-40.749-10.499-40.735-23.33C14.11,14.067,32.43,3.611,54.878,3.633"/>
	<path class="st1" d="M54.89,5.389c21.482,0.016,39.006,9.719,38.998,21.585c-0.007,11.865-17.554,21.527-39.028,21.51
		c-21.483-0.018-39.01-9.703-39.001-21.568S33.407,5.375,54.89,5.389"/>
	<polygon class="st2" points="44.546,18.702 45.944,12.345 44.401,12.345 28.081,12.329 26.723,18.688 31.84,18.693 27.108,40.669 
		34.591,40.681 39.324,18.7 44.397,18.703 	"/>
	<path class="st2" d="M84.894,17.127c-0.012-0.53-0.138-1.146-0.138-1.146c-1.597-6.693-16.778-5.942-18.546,2.505l-2.432,11.391
		l-0.896,4.165c-0.419,1.932-0.032,3.49,0.891,4.673c3.684,4.73,15.923,3.186,17.668-4.66l1.083-5.087L75,28.959l-1.146,5.092
		c-0.318,1.76-3.894,1.754-3.488,0l3.373-15.559c0.357-1.816,3.806-1.729,3.49,0.002l-0.875,4.076l7.53,0.008l0.868-4.075v-0.019
		C84.753,18.484,84.901,17.654,84.894,17.127"/>
	<path class="st2" d="M53.832,34.035c-0.421,1.755-3.912,1.755-3.591,0l3.454-15.556c0.322-1.819,3.804-1.729,3.493,0.005
		l-0.913,4.076l7.515,0.005h0.052l0.825-4.08c0.379-1.784-0.01-3.229-0.874-4.343C60.119,9.5,47.749,10.892,46.169,18.47
		l-1.776,8.307l-1.55,7.249c-0.504,2.347,0.188,4.153,1.543,5.37c4.307,3.846,15.334,2.073,16.971-5.356l1.08-5.088l-7.48-0.005
		L53.832,34.035z"/>
	<g>
		<g>
			<g>
				<path d="M26.028,60.14c-0.049-1.649-0.242-3.591-1.82-3.591c-0.728,0-1.093,0.293-1.383,1.068
					c-0.438,1.164-0.438,3.664-0.438,4.61c0,1.237,0,3.202,0.387,4.223c0.269,0.654,0.633,0.996,1.337,0.996
					c1.261,0,1.698-0.707,1.917-3.229l2.814,0.217c-0.098,1.432-0.413,5.896-4.805,5.896c-3.615,0-5.169-2.982-5.169-8.25
					c0-3.228,0.655-8.418,5.267-8.418c4.367,0,4.682,4.099,4.828,6.234L26.028,60.14z"/>
				<path d="M40.731,70.087h-2.766v-1.695c-0.485,1.018-1.141,1.939-2.692,1.939c-2.694,0-2.694-2.063-2.694-3.979v-8.224h3.106
					v8.224c0,0.678,0.023,1.432,0.897,1.432c0.873,0,1.045-0.484,1.045-1.992v-7.664h3.104V70.087z"/>
				<path d="M45.003,58.129h2.79v1.77c0.534-1.408,1.188-2.015,2.45-2.015c1.602,0,2.087,0.849,2.5,1.918
					c0.291-0.947,0.777-1.918,2.305-1.918c2.646,0,2.646,2.16,2.646,3.81v8.394h-3.033v-8.394c0-0.558,0-1.237-0.875-1.237
					c-0.922,0-0.922,0.8-0.922,1.771v7.86h-3.033v-8.201c0-0.751,0-1.431-0.85-1.431c-0.896,0-0.945,0.68-0.945,1.577v8.054h-3.033
					V58.129z"/>
				<path d="M61.891,58.129h2.693v1.333c0.292-0.487,0.923-1.48,2.208-1.48c2.84,0,3.178,4.052,3.178,5.897
					c0,1.09-0.096,3.422-0.969,5.047c-0.22,0.41-0.874,1.311-2.209,1.311c-1.067,0-1.553-0.584-1.868-0.973v4.877h-3.033V58.129z
					 M64.924,66.062c0,1.141,0,1.988,0.801,1.988c0.268,0,0.607-0.096,0.778-0.68c0.24-0.898,0.24-2.668,0.24-3.299
					c0-1.553-0.049-2.161-0.12-2.694c-0.074-0.533-0.291-1.115-0.875-1.115c-0.824,0-0.824,0.993-0.824,1.479V66.062z"/>
				<path d="M73.83,53.906h3.104v16.181H73.83V53.906z"/>
				<path d="M83.874,64.628c-0.048,2.111,0.146,3.301,1.311,3.301c0.924,0,1.117-0.777,1.287-1.967l2.547,0.219
					c-0.121,1.992-1.164,4.15-3.932,4.15c-3.154,0-4.318-2.426-4.318-6.139c0-2.937,0.825-6.309,4.295-6.309
					c2.014,0,2.985,1.189,3.52,2.427c0.557,1.287,0.557,3.275,0.557,4.318H83.874z M86.253,62.664
					c-0.024-1.868-0.363-2.596-1.115-2.596c-1.143,0-1.24,1.601-1.287,2.596H86.253z"/>
			</g>
		</g>
		<g>
			<line class="st0" x1="92.435" y1="63.011" x2="105.74" y2="63.011"/>
			<line class="st0" x1="2.173" y1="63.011" x2="15.479" y2="63.011"/>
		</g>
	</g>
</g>
</svg>
